<svg id="Capa_1" enable-background="new 0 0 512 512" height="512" viewBox="0 0 512 512" width="512" xmlns="http://www.w3.org/2000/svg"><g><g><path d="m479.897 463.309v-14.611l-14.094-7.648-21.105 9c-15.601 0-25.326 6.274-31.325 13.259l39.537 9z" fill="#e4936b"/><path d="m413.373 463.309c-.055.064-.115.127-.169.191-6.181 7.293-.981 18.483 8.579 18.483h46.886c6.202 0 11.229-5.027 11.229-11.229v-7.444h-66.525z" fill="#db835d"/><path d="m422.569 396.731 6.831 44.561c.772 5.038 5.106 8.758 10.203 8.758h35.199c5.097 0 9.431-3.72 10.203-8.758l3.582-23.364c-16.042-26.126-48.047-34.572-66.018-21.197z" fill="#cb3541"/><path d="m419.873 379.146 2.696 17.585c12.928-4.232 27.709-1.22 37.986 9.057 7.305 8.59 17.759 12.633 28.033 12.139l2.89-18.852c0 .001-30.268-50.834-71.605-19.929z" fill="#ba3243"/><path d="m387.907 463.309v-14.611l-14.094-7.648-21.105 9c-15.601 0-25.326 6.274-31.325 13.259l39.537 9z" fill="#e4936b"/><path d="m321.382 463.309c-.055.064-.115.127-.169.191-6.181 7.293-.981 18.483 8.579 18.483h46.886c6.202 0 11.229-5.027 11.229-11.229v-7.444h-66.525z" fill="#db835d"/><path d="m397.165 414.225c-9.258-9.173-44.944-25.066-67.061-20.587l7.306 47.654c.772 5.038 5.106 8.758 10.203 8.758h35.199c5.097 0 9.431-3.72 10.203-8.758z" fill="#cb3541"/><path d="m327.256 375.06 2.848 18.577c9.269.359 18.42 4.403 25.009 12.151 10.739 12.628 28.28 15.436 42.052 8.436l3.125-20.386c0 .001-28.705-34.503-73.034-18.778z" fill="#ba3243"/><path d="m217.701 463.309v-14.611l-14.094-7.648-21.105 9c-15.601 0-25.326 6.274-31.325 13.259l39.537 9z" fill="#e4936b"/><path d="m151.176 463.309c-.055.064-.115.127-.169.191-6.181 7.293-.981 18.483 8.579 18.483h46.886c6.202 0 11.229-5.027 11.229-11.229v-7.444h-66.525z" fill="#db835d"/><path d="m229.837 395.451c-12.136-12.468-32.887 1.337-32.887 1.337-12.512 6.703-33.625 19.205-33.625 19.205l3.878 25.299c.772 5.038 5.106 8.758 10.203 8.758h35.199c5.097 0 9.431-3.72 10.203-8.758z" fill="#cb3541"/><path d="m160.367 396.696 2.958 19.297c11.79 2.331 24.489-1.068 33.625-10.205 8.946-8.946 21.307-12.385 32.887-10.337l2.757-17.986c-37.227-31.772-72.227 19.231-72.227 19.231z" fill="#ba3243"/><path d="m125.71 463.309v-14.611l-14.094-7.648-21.105 9c-15.601 0-25.326 6.274-31.325 13.259l39.537 9z" fill="#e4936b"/><path d="m59.186 463.309c-.055.064-.115.127-.169.191-6.181 7.293-.981 18.483 8.579 18.483h46.886c6.202 0 11.229-5.027 11.229-11.229v-7.444h-66.525z" fill="#db835d"/><path d="m137.116 400.22c-7.37-15.923-33.235-15.804-45.607-3.432l-19.962 20.587 3.667 23.917c.772 5.038 5.106 8.758 10.203 8.758h35.199c5.097 0 9.431-3.72 10.203-8.758z" fill="#cb3541"/><path d="m91.509 369.207-22.749 29.986 2.787 18.181c7.476-1.395 14.575-5.252 19.962-11.586 12.372-12.372 31.273-14.223 45.607-5.568l2.586-16.869c-6.332-21.075-48.193-14.144-48.193-14.144z" fill="#ba3243"/><path d="m43.118 320.657v56.11c0 12.579 10.269 22.906 22.844 22.615 9.452-.219 18.83-4.276 25.546-12.174 14.558-14.558 38.162-14.558 52.721 0 14.558 14.559 38.162 14.559 52.721 0 14.559-14.558 38.162-14.558 52.721 0 13.818 16.249 38.903 16.249 52.721 0 13.818-16.248 38.903-16.248 52.721 0 13.818 16.249 38.903 16.249 52.721 0 14.558-14.558 38.162-14.558 52.721 0 8.935 10.507 22.582 14.219 34.846 11.137 9.865-2.48 16.599-11.625 16.599-21.797v-56.11l-25.725-9.414h-417.516z" fill="#f7594e"/><path d="m43.118 264.547v56.11c0 12.579 10.269 22.906 22.844 22.615 9.452-.219 18.83-4.276 25.546-12.174 14.558-14.559 38.162-14.559 52.721 0 14.558 14.558 38.162 14.558 52.721 0 14.559-14.559 38.162-14.559 52.721 0 13.818 16.248 38.903 16.248 52.721 0s38.903-16.248 52.721 0 38.903 16.248 52.721 0c14.558-14.559 38.162-14.559 52.721 0 8.935 10.507 22.582 14.219 34.846 11.137 9.865-2.48 16.599-11.625 16.599-21.797v-51.218c0-1.222-.051-3.653-.051-3.653l-29.067-9.063h-414.123z" fill="#febd55"/><path d="m65.962 287.162c9.452-.219 18.83-4.276 25.546-12.174 14.559-14.558 38.162-14.558 52.721 0 14.558 14.558 38.162 14.558 52.721 0 14.559-14.558 38.162-14.558 52.721 0 13.818 16.248 38.903 16.248 52.721 0 13.818-16.248 38.903-16.248 52.721 0 13.818 16.248 38.903 16.248 52.721 0 14.558-14.558 38.162-14.558 52.721 0 8.935 10.507 22.582 14.219 34.846 11.137 9.462-2.378 16.026-10.891 16.548-20.558-1.936-72.392-61.226-130.484-134.086-130.484h-334.745v129.464c0 12.578 10.269 22.906 22.844 22.615z" fill="#ffe08c"/><g><path d="m35.911 220.242c18.422 21.33 49.192 11.912 61.473-3.574s27.031-29.443 39.02-29.443 26.738 13.958 39.02 29.443c12.281 15.486 43.051 24.903 61.473 3.574 12.896-14.932 14.007-37.486-.722-59.38l-.004-.001c.004.001-70.781-2.663-70.781-2.663s-9.311-9.63-28.985-9.63-28.985 9.63-28.985 9.63l-70.781 2.663-.004.001c-15.247 26.963-13.621 44.448-.724 59.38z" fill="#f7594e"/><path d="m185.035 65.809c-9.789-6.129-26.729-14.102-48.632-14.102s-38.842 7.973-48.632 14.102l19.646 92.389s9.311-9.63 28.985-9.63 28.985 9.63 28.985 9.63z" fill="#ffe08c"/><path d="m119.064 48.825c0 12.612 9.837 19.369 17.339 19.369s17.339-8.52 17.339-19.369c-3.319-6.171-9.837-10.369-17.339-10.369-7.502-.001-14.02 4.198-17.339 10.369z" fill="#f7594e"/><path d="m136.403 220.822c-14.621 0-77.185 51.73-77.185 51.73 18.028 14.806 46.549 23.035 77.185 23.035s59.156-8.229 77.185-23.035c0 0-62.564-51.73-77.185-51.73z" fill="#2fb380"/><path d="m229.688 251.651s-78.664-49.41-93.285-49.41-93.285 49.41-93.285 49.41c3.31 7.959 8.863 14.957 16.1 20.901 6.291.155 12.613-.544 18.702-2.116 29.819-7.697 43.862-40.614 58.483-40.614s28.663 32.917 58.482 40.614c6.089 1.572 12.411 2.271 18.702 2.116 7.238-5.943 12.791-12.942 16.101-20.901z" fill="#25a06e"/><path d="m136.403 220.822c-10.787 0-37.995 39.4-37.995 39.4 9.136 3.164 21.432 5.337 37.993 5.337 16.563 0 28.859-2.174 37.996-5.337 0 0-27.207-39.4-37.994-39.4z" fill="#cb3541"/><path d="m136.403 202.242c-14.04 0-55.005 48.577-55.005 48.577 3.854 3.37 9.311 6.738 17.01 9.404 16.727-12.488 27.208-30.4 37.995-30.4s21.268 17.911 37.994 30.399c7.698-2.666 13.154-6.034 17.008-9.404 0 0-40.963-48.576-55.002-48.576z" fill="#ba3243"/><path d="m136.403 59.194c-7.502 0-14.02-4.198-17.339-10.369-1.488 2.767-2.336 5.929-2.336 9.29 0 10.858 8.809 19.66 19.675 19.66s19.675-8.802 19.675-19.66c0-3.361-.848-6.523-2.336-9.29-3.319 6.171-9.837 10.369-17.339 10.369z" fill="#ea4642"/><path d="m.693 186.372c0 44.86 44.743 64.289 77.228 55.904 29.819-7.697 43.862-40.614 58.482-40.614 14.621 0 28.664 32.917 58.482 40.614 32.485 8.386 75.32-11.043 77.228-55.904-2.995-18.841-15.174-31.923-24.867-40.044l-10.544 3.464-.53 11.07c5.509 11.929 13.618 35.448.722 50.38-18.422 21.33-49.191 11.912-61.473-3.574-12.281-15.486-27.031-29.443-39.019-29.443-11.989 0-26.738 13.958-39.02 29.443-12.281 15.486-43.051 24.903-61.473 3.574-12.896-14.932-4.787-38.451.722-50.38l.174-10.89-11.248-3.644c-9.691 8.121-21.869 21.203-24.864 40.044z" fill="#36ce94"/><g><path d="m251.419 115.412c0 27.975-24.036 48.29-47.702 48.29l-11.381-10.357s-5.28-27.873-5.28-51.089c0-12.249 34.076-22.878 34.076-22.878 15.428 5.92 27.068 19.474 30.287 36.034z" fill="#edf4fa"/><path d="m192.336 153.345c3.653.877 7.459 1.357 11.381 1.357 23.666 0 43.37-16.907 47.702-39.29.586 3.014.895 6.126.895 9.311 0 26.819-21.757 48.56-48.597 48.56-8.358 0-16.222-2.109-23.091-5.822v-14.115z" fill="#e4eaef"/><path d="m221.342 115.433c0 14.604-9.977 19.628-17.626 19.628 0 0-7.959-10.662-7.959-10.662s-8.787-8.966-8.787-8.966l9.078-9.097c2.361-.984 4.95-1.53 7.668-1.53 7.65-.001 14.284 4.309 17.626 10.627z" fill="#525256"/><path d="m203.717 126.06c7.649 0 14.284-4.31 17.626-10.628 1.468 2.775 2.308 5.933 2.308 9.29 0 11-8.924 19.918-19.933 19.918-3.337 0-6.48-.823-9.243-2.272l-8.156-9.014 9.441-8.958c2.436 1.066 5.125 1.664 7.957 1.664z" fill="#464649"/><path d="m205.591 53.667c12.52-4.316 24.907-11.024 32.056-21.423 2.389-3.475 7.719-2.756 8.943 1.279.407 1.343.79 2.774 1.124 4.264-.001 0-.003-.001-.004-.001.004 8.898-3.089 16.41-6.331 19.534-16.174 15.584-39.351 14.945-42.567 27.251-1.301 4.977-1.234 7.596-2.217 13.535-.34 1.285-.54 2.655-.54 4.149 0 44.072-2.047 65.738-19.883 65.738l-10.784-9.796v-48.207c.001-25.424 16.151-48.031 40.203-56.323z" fill="#f7594e"/><path d="m173.73 163.52c0 7.061-7.005 14.724-11.79 14.724s-11.79-6.799-11.79-14.724c2.752-3.482 7.005-5.724 11.79-5.724 4.786 0 9.039 2.242 11.79 5.724z" fill="#ffe08c"/><g><path d="m196.055 83.675c-1.034-18.964 29.15-19.771 45.324-35.355 3.242-3.124 5.22-6.743 6.331-10.534 2.076 9.258 2.204 20.891-6.331 29.115-14.901 14.358-40.799 16.16-44.784 31.206-.081-4.52-.261-9.324-.54-14.432z" fill="#ea4642"/></g><path d="m161.941 169.244c4.785 0 9.038-2.242 11.79-5.724 2.021 2.557 3.236 5.779 3.236 9.29 0 8.292-6.727 15.014-15.026 15.014s-15.026-6.722-15.026-15.014c0-3.511 1.216-6.733 3.236-9.29 2.752 3.482 7.005 5.724 11.79 5.724z" fill="#f9d375"/></g><g><path d="m21.388 115.412c0 27.975 24.036 48.29 47.702 48.29l11.381-10.357s5.28-27.873 5.28-51.089c0-12.249-34.076-22.878-34.076-22.878-15.429 5.92-27.068 19.474-30.287 36.034z" fill="#edf4fa"/><path d="m80.471 153.345c-3.653.877-7.459 1.357-11.381 1.357-23.666 0-43.37-16.907-47.702-39.29-.586 3.014-.895 6.126-.895 9.311 0 26.819 21.757 48.56 48.597 48.56 8.358 0 16.222-2.109 23.091-5.822v-14.115z" fill="#e4eaef"/><path d="m51.464 115.433c0 14.604 9.976 19.628 17.626 19.628l7.959-10.662 8.787-8.966-9.078-9.097c-2.361-.984-4.95-1.53-7.668-1.53-7.65-.001-14.284 4.309-17.626 10.627z" fill="#525256"/><path d="m69.09 126.06c-7.649 0-14.284-4.31-17.626-10.628-1.468 2.775-2.308 5.933-2.308 9.29 0 11 8.924 19.918 19.933 19.918 3.337 0 6.48-.823 9.243-2.272l8.156-9.014-9.44-8.958c-2.438 1.066-5.127 1.664-7.958 1.664z" fill="#464649"/><path d="m67.215 53.667c-12.52-4.316-24.907-11.024-32.056-21.423-2.389-3.475-7.719-2.756-8.943 1.279-.407 1.343-.79 2.774-1.124 4.264.001 0 .003-.001.004-.001-.004 8.898 3.089 16.41 6.331 19.534 16.174 15.584 39.351 14.945 42.567 27.251 1.301 4.977 1.234 7.596 2.217 13.535.34 1.285.54 2.655.54 4.149 0 44.072 2.047 65.738 19.883 65.738l10.784-9.796v-48.207c0-25.424-16.151-48.031-40.203-56.323z" fill="#f7594e"/><path d="m99.076 163.52c0 7.061 7.005 14.724 11.79 14.724s11.79-6.799 11.79-14.724c-2.752-3.482-7.005-5.724-11.79-5.724s-9.038 2.242-11.79 5.724z" fill="#ffe08c"/><g><path d="m76.751 83.675c1.034-18.964-29.15-19.771-45.324-35.355-3.242-3.124-5.22-6.743-6.331-10.534-2.076 9.258-2.204 20.891 6.331 29.115 14.901 14.358 40.799 16.16 44.784 31.206.081-4.52.262-9.324.54-14.432z" fill="#ea4642"/></g><path d="m110.865 169.244c-4.785 0-9.038-2.242-11.79-5.724-2.021 2.557-3.236 5.779-3.236 9.29 0 8.292 6.727 15.014 15.026 15.014s15.026-6.722 15.026-15.014c0-3.511-1.216-6.733-3.236-9.29-2.752 3.482-7.005 5.724-11.79 5.724z" fill="#f9d375"/></g><g><path d="m194.886 233.275c-29.819-7.697-43.862-40.614-58.482-40.614-14.621 0-28.664 32.917-58.483 40.614-32.485 8.386-71.599-8.024-77.228-46.904-.446 2.806-.693 5.737-.693 8.801 0 45.873 42.831 65.742 77.921 56.684 29.819-7.697 43.862-40.614 58.483-40.614s28.663 32.917 58.482 40.614c35.089 9.058 77.921-10.811 77.921-56.684 0-3.064-.247-5.994-.693-8.8-5.629 38.879-44.744 55.289-77.228 46.903z" fill="#34bf86"/></g></g></g></g></svg>