<svg id="Capa_1" enable-background="new 0 0 512 512" height="512" viewBox="0 0 512 512" width="512" xmlns="http://www.w3.org/2000/svg"><g><g><path d="m459.727 408.436c-1.509-29.717-3.431-49.168-28.981-80.66-20.567-25.35-30.193-81.738-30.193-81.738s-22.427 1.512-22.427 1.512l-10.929 17.898-9 132.328 9 114.223h139.233c3.199 0 5.572-2.96 4.888-6.086-5.991-27.375-49.452-55.342-51.591-97.477z" fill="#ffe08c"/><path d="m52.273 408.436c1.509-29.717 3.431-49.168 28.981-80.66 20.567-25.35 30.193-81.738 30.193-81.738l22.427 1.512 10.929 17.898 9 132.328-9 114.223h-139.232c-3.199 0-5.572-2.96-4.888-6.086 5.99-27.375 49.451-55.342 51.59-97.477z" fill="#ffe08c"/><path d="m162.601 58.596c-.833-4.194-4.904-6.917-9.102-6.086-33.792 6.713-41.193-10.168-41.492-10.891l-.004.001c-1.143-2.849-3.925-4.864-7.183-4.864-5.25-.104-9.139 5.447-7.287 10.336l-.008.003c.029.08.138.354.199.495 1.154 2.723 7.361 15.237 25.399 20.074-10.996 2.198-19.239-1.621-19.775-1.879-3.811-1.888-8.435-.347-10.349 3.457-1.923 3.819-.386 8.474 3.433 10.397.537.27 8.505 4.175 19.973 4.175 7.412 0 16.286-1.632 25.56-6.929 2.781-1.589 11.445-6.548 14.55-9.186 3.258-2.769 6.918-4.909 6.086-9.103z" fill="#febd55"/><path d="m349.399 58.596c.833-4.194 4.904-6.917 9.102-6.086 33.792 6.713 41.193-10.168 41.492-10.891l.004.001c1.143-2.849 3.925-4.864 7.183-4.864 5.25-.104 9.139 5.447 7.287 10.336l.008.003c-.029.08-.138.354-.199.495-1.154 2.723-7.361 15.237-25.399 20.074 10.996 2.198 19.239-1.621 19.775-1.879 3.811-1.888 8.435-.347 10.349 3.457 1.923 3.819.386 8.474-3.433 10.397-.537.27-8.505 4.175-19.973 4.175-7.412 0-16.286-1.632-25.561-6.929-2.781-1.589-11.445-6.548-14.55-9.186-3.257-2.769-6.917-4.909-6.085-9.103z" fill="#febd55"/><path d="m367.192 265.448v246.552h-111.192-111.192v-246.552z" fill="#f7594e"/><path d="m190.291 448.941c-4.276 0-7.742-3.466-7.742-7.742v-141.269c0-4.276 3.466-7.742 7.742-7.742s7.742 3.466 7.742 7.742v141.269c0 4.275-3.466 7.742-7.742 7.742z" fill="#cb3541"/><path d="m321.709 448.941c-4.276 0-7.742-3.466-7.742-7.742v-141.269c0-4.276 3.466-7.742 7.742-7.742s7.742 3.466 7.742 7.742v141.269c0 4.275-3.466 7.742-7.742 7.742z" fill="#cb3541"/><path d="m231.822 422.518c-1.491 3.315-2.327 6.988-2.327 10.858 0 14.638 11.867 26.505 26.505 26.505s26.505-11.867 26.505-26.505c0-3.87-.836-7.543-2.327-10.858z" fill="#edbca4"/><path d="m256 418.222c32.015 0 57.967-21.417 57.967-66.967v-42.57h-115.934v42.57c0 45.55 25.953 66.967 57.967 66.967z" fill="#ffd6bd"/><g><path d="m313.967 43.931c-11.668-7.307-31.861-16.809-57.967-16.809-26.107 0-46.299 9.503-57.967 16.809l23.418 110.124h69.099z" fill="#ffe08c"/><path d="m290.55 154.055s-11.098-11.479-34.55-11.479-34.55 11.479-34.55 11.479l-84.368 3.174-.005.001c-15.154 23.731-16.233 51.253-.861 69.051 21.958 25.424 58.635 14.199 73.273-4.26 14.639-18.459 32.22-35.096 46.51-35.096s31.871 16.637 46.51 35.096 51.315 29.684 73.273 4.26c15.372-17.798 17.323-40.763-.861-69.051l-.005-.001c.006.001-84.366-3.174-84.366-3.174z" fill="#f7594e"/><path d="m256 217.282c17.427 0 34.166 39.236 69.709 48.411 41.825 10.797 92.879-12.886 92.879-67.566 0-28.177-17.192-47.098-30.466-58.22-3.28 6.586-7.777 12.458-13.199 17.324 6.566 14.219 16.233 42.253.861 60.051-21.958 25.424-58.635 14.199-73.273-4.26-14.639-18.459-32.22-35.096-46.51-35.096s-31.871 16.637-46.51 35.096-51.315 29.684-73.273 4.26c-15.372-17.798-5.705-45.833.861-60.051-5.422-4.866-9.919-10.739-13.199-17.324-13.274 11.122-30.466 30.043-30.466 58.22 0 54.68 51.053 78.363 92.879 67.566 35.541-9.176 52.28-48.411 69.707-48.411z" fill="#36ce94"/><path d="m352.276 286.576s-27.914-6.716-35.567-11.303c-34.554-20.712-43.282-48.411-60.709-48.411s-30.432 29.138-60.709 48.411c-7.527 4.791-35.567 11.304-35.567 11.304 21.072 20.023 57.23 31.241 96.276 31.241 39.047 0 75.204-11.218 96.276-31.242z" fill="#2fb380"/><path d="m367.192 265.448s-10.114 1.322-23.483.244c-36.589-2.95-70.282-57.41-87.709-57.41s-51.347 52.383-87.709 57.41c-14.011 1.937-23.483-.244-23.483-.244 3.264 7.849 8.371 14.909 14.916 21.128 8.895.681 17.928-.074 26.567-2.304 35.543-9.175 52.282-48.411 69.709-48.411s34.166 39.236 69.709 48.411c8.639 2.23 17.672 2.985 26.567 2.303 6.545-6.218 11.652-13.277 14.916-21.127z" fill="#25a06e"/><path d="m304.575 274.449s-35.023-47.586-48.575-47.586-48.576 47.587-48.576 47.587c11.172 4.419 26.775 7.576 48.574 7.576 21.802 0 37.407-3.158 48.579-7.578-.001 0-.002 0-.002.001z" fill="#cb3541"/><path d="m256 208.282c-16.735 0-65.564 56.174-65.564 56.174 4.026 3.52 9.517 7.039 16.988 9.994 21.885-14.867 35.025-38.588 48.576-38.588s26.691 23.72 48.575 38.587c7.47-2.955 12.961-6.474 16.986-9.994 0-.001-48.827-56.173-65.561-56.173z" fill="#ba3243"/><path d="m225.56 179.789c6.482 0 15.287-6.341 15.287-17.607-3.144-5.154-8.805-8.607-15.287-8.607s-12.143 3.453-15.287 8.607c0 13.21 8.805 17.607 15.287 17.607z" fill="#ffe08c"/><path d="m225.56 170.789c-6.482 0-12.143-3.453-15.287-8.607-1.654 2.711-2.623 5.884-2.623 9.29 0 9.884 8.019 17.897 17.911 17.897s17.911-8.013 17.911-17.897c0-3.407-.97-6.58-2.624-9.29-3.145 5.154-8.806 8.607-15.288 8.607z" fill="#f9d375"/><path d="m286.44 179.789c-6.482 0-15.287-6.341-15.287-17.607 3.144-5.154 8.805-8.607 15.287-8.607s12.143 3.453 15.287 8.607c0 13.21-8.805 17.607-15.287 17.607z" fill="#ffe08c"/><path d="m286.44 170.789c6.482 0 12.143-3.453 15.287-8.607 1.654 2.711 2.624 5.884 2.624 9.29 0 9.884-8.019 17.897-17.911 17.897s-17.911-8.013-17.911-17.897c0-3.407.97-6.58 2.624-9.29 3.144 5.154 8.805 8.607 15.287 8.607z" fill="#f9d375"/><path d="m93.99 189.383c0 56.655 53.075 76.854 92.301 66.729 35.543-9.175 52.282-48.411 69.709-48.411s34.166 39.236 69.709 48.411c39.225 10.126 92.301-14.415 92.301-66.729-3.076-23.397-18.038-39.548-29.888-49.477h-13.046l-.153 17.324c6.566 14.219 16.233 42.253.861 60.051-21.958 25.424-58.635 14.199-73.273-4.26-14.639-18.459-32.22-35.096-46.51-35.096s-31.871 16.637-46.51 35.096-51.315 29.684-73.273 4.26c-15.372-17.798-5.705-45.833.861-60.051l.335-17.324h-13.535c-11.851 9.929-26.813 26.08-29.889 49.477z" fill="#36ce94"/><g><path d="m325.709 247.112c-35.543-9.175-52.282-48.411-69.709-48.411s-34.166 39.236-69.709 48.411c-39.225 10.126-86.566-10.075-92.301-57.729-.37 2.811-.578 5.721-.578 8.744 0 54.68 51.053 78.362 92.879 67.566 35.543-9.175 52.282-48.41 69.709-48.41s34.166 39.236 69.709 48.41c41.825 10.797 92.879-12.886 92.879-67.566 0-3.023-.208-5.932-.578-8.744-5.735 47.653-53.076 67.854-92.301 57.729z" fill="#34bf86"/></g><path d="m175.765 162.455 14.646-10.87 3.641-67.772c.857-16.561-39.044-23.709-39.044-23.709-18.943 7.269-33.093 24.193-36.419 44.743-.001 36.734 28.344 57.608 57.176 57.608z" fill="#edf4fa"/><path d="m190.41 151.585c-4.678 1.218-9.586 1.87-14.646 1.87-28.831 0-52.734-21.051-57.176-48.608-.49 3.03-.749 6.138-.749 9.307 0 31.967 25.934 57.881 57.926 57.881 9.962 0 19.336-2.514 27.524-6.94z" fill="#e4eaef"/><path d="m175.765 128.315 9.624-11.038 8.663-11.129-9.146-13.912c-2.814-1.173-5.901-1.823-9.14-1.823-9.823 0-18.252 5.956-21.87 14.451-.002 16.516 12.046 23.451 21.869 23.451z" fill="#525256"/><path d="m175.765 119.315c-9.823 0-18.252-5.956-21.87-14.451-1.216 2.854-1.889 5.993-1.889 9.29 0 13.112 10.638 23.742 23.76 23.742 3.977 0 7.724-.982 11.018-2.708l8.125-8.908-9.519-9.003c-2.944 1.305-6.198 2.038-9.625 2.038z" fill="#464649"/><path d="m173.53 29.458c-15.54-5.358-30.91-13.806-39.234-27.096-2.254-3.599-7.65-2.96-8.993 1.069-.909 2.726-1.773 5.83-2.403 9.137.002 0 .003-.001.005-.001-.005 12.904 7.968 23.086 7.968 23.086l50.471 30.962s3.422 12.398 3.224 17.192c.206 1.13.329 2.311.329 3.568 0 52.532 2.44 78.357 23.7 78.357l12.854-11.676v-57.463c-.001-30.305-19.252-57.252-47.921-67.135z" fill="#f7594e"/><path d="m256 48.613c9.648 0 21.532-6.781 21.532-23.143-3.6-8.32-11.884-14.144-21.532-14.144s-17.932 5.824-21.532 14.143c0 16.363 11.884 23.144 21.532 23.144z" fill="#f7594e"/><path d="m256 39.613c-9.648 0-17.932-5.824-21.532-14.143-1.233 2.849-1.919 5.989-1.919 9.29 0 12.942 10.5 23.434 23.452 23.434s23.452-10.492 23.452-23.434c0-3.301-.686-6.441-1.919-9.29-3.602 8.319-11.886 14.143-21.534 14.143z" fill="#ea4642"/><g><path d="m184.897 68.793c0-22.638-34.746-23.566-54.025-42.142-4.299-4.142-6.752-9.011-7.968-14.086-2.031 10.665-1.589 23.458 7.968 32.666 18.208 17.544 50.196 19.356 53.695 38.574.199-4.793.33-9.801.33-15.012z" fill="#ea4642"/></g><path d="m336.235 162.455-14.645-10.87-3.641-67.772c-.857-16.561 39.044-23.709 39.044-23.709 18.943 7.269 33.093 24.193 36.419 44.743 0 36.734-28.345 57.608-57.177 57.608z" fill="#edf4fa"/><path d="m321.59 151.585c4.678 1.218 9.586 1.87 14.646 1.87 28.832 0 52.734-21.051 57.176-48.608.49 3.03.749 6.138.749 9.307 0 31.967-25.934 57.881-57.926 57.881-9.962 0-19.336-2.514-27.524-6.94z" fill="#e4eaef"/><path d="m336.235 128.315-9.624-11.038-8.663-11.129 9.146-13.912c2.814-1.173 5.901-1.823 9.14-1.823 9.823 0 18.252 5.956 21.871 14.451.001 16.516-12.047 23.451-21.87 23.451z" fill="#525256"/><path d="m336.235 119.315c9.823 0 18.252-5.956 21.87-14.451 1.216 2.854 1.889 5.993 1.889 9.29 0 13.112-10.638 23.742-23.76 23.742-3.977 0-7.724-.982-11.018-2.708l-8.126-8.908 9.52-9.003c2.944 1.305 6.198 2.038 9.625 2.038z" fill="#464649"/><path d="m338.47 29.458c15.54-5.358 30.909-13.806 39.234-27.096 2.254-3.599 7.65-2.96 8.993 1.069.909 2.726 1.773 5.83 2.403 9.137-.002 0-.003-.001-.005-.001.005 12.904-7.968 23.086-7.968 23.086l-50.471 30.962s-3.422 12.398-3.224 17.192c-.206 1.13-.329 2.311-.329 3.568 0 52.532-2.44 78.357-23.7 78.357l-12.854-11.676v-57.463c.001-30.305 19.252-57.252 47.921-67.135z" fill="#f7594e"/><g><path d="m327.103 68.793c0-22.638 34.746-23.566 54.025-42.142 4.299-4.142 6.752-9.011 7.968-14.086 2.031 10.665 1.589 23.458-7.968 32.666-18.207 17.544-50.196 19.356-53.695 38.574-.199-4.793-.33-9.801-.33-15.012z" fill="#ea4642"/></g></g><path d="m256 409.222c-32.015 0-57.967-25.953-57.967-57.967v18.581c0 32.014 25.953 57.967 57.967 57.967 32.014 0 57.967-25.953 57.967-57.967v-18.581c0 32.014-25.952 57.967-57.967 57.967z" fill="#f9c6aa"/></g><g><path d="m236.359 341.431c0-4.284-3.473-7.757-7.757-7.757s-7.757 3.473-7.757 7.757v12.675c0 4.284 3.473 7.757 7.757 7.757s7.757-3.473 7.757-7.757z" fill="#525256"/><path d="m283.398 333.674c-4.284 0-7.757 3.473-7.757 7.757v12.675c0 4.284 3.473 7.757 7.757 7.757s7.757-3.473 7.757-7.757v-12.675c0-4.284-3.473-7.757-7.757-7.757z" fill="#525256"/><path d="m268.382 370.955c-3.115 0-5.793 1.84-7.028 4.488-.197.353-1.381 2.112-5.354 2.112-3.974 0-5.157-1.759-5.355-2.112-1.234-2.648-3.913-4.488-7.028-4.488-5.427-.121-9.333 5.806-7.161 10.739h-.001c.02.046.042.09.062.135 1.81 4.24 7.873 11.24 19.482 11.24s17.672-7 19.482-11.24c.02-.045.043-.09.062-.135h-.001c2.173-4.933-1.733-10.86-7.16-10.739z" fill="#f7594e"/></g></g></svg>