<svg id="Capa_1" enable-background="new 0 0 512 512" height="512" viewBox="0 0 512 512" width="512" xmlns="http://www.w3.org/2000/svg"><g><g><path d="m347.272 77.084c-18.373-11.503-50.166-26.466-91.272-26.466s-72.899 14.962-91.271 26.466l36.872 173.394h108.799z" fill="#ffe08c"/><path d="m256 89.961c17.182 0 35.743-15.229 35.743-36.607-4.122-15.88-18.562-27.607-35.743-27.607s-31.621 11.727-35.743 27.607c0 21.743 18.561 36.607 35.743 36.607z" fill="#f7594e"/><path d="m256 80.961c-17.182 0-31.621-11.727-35.743-27.607-.77 2.968-1.182 6.081-1.182 9.29 0 20.378 16.532 36.897 36.926 36.897s36.925-16.52 36.925-36.897c0-3.209-.412-6.322-1.182-9.29-4.123 15.881-18.562 27.607-35.744 27.607z" fill="#ea4642"/><path d="m399.768 448.826c.007.001-81.393-28.969-81.393-28.969h-124.75s-81.4 28.97-81.392 28.969c-.003 0-.005 0-.007 0 11.448 14.891 25.708 26.075 33.642 31.695 2.881 2.04 6.908.555 7.755-2.872l4.562-18.45c10.312 21.03 38.043 34.516 50.144 39.57 2.953 1.233 6.283-.599 6.839-3.751l2.879-16.319c10.949 18.453 30.337 26.828 36.217 29.022 1.124.42 2.351.42 3.476 0 5.879-2.194 25.268-10.568 36.217-29.022l2.879 16.319c.556 3.152 3.886 4.984 6.839 3.751 12.101-5.054 39.833-18.539 50.144-39.57l4.562 18.45c.847 3.427 4.874 4.913 7.755 2.872 7.934-5.62 22.194-16.804 33.641-31.694-.005 0-.007 0-.009-.001z" fill="#cb3541"/><g fill="#ba3243"><path d="m331.428 410.069c.001-.001.002.001.003.002 0-.001-13.056-.003-13.056-.003v9.788c13.247 10.846 28.656 20.535 47.384 25.156 11.076 2.733 22.562 3.991 34.008 3.813 4.532-5.894 8.628-12.363 11.712-19.304 0 .002-80.051-19.452-80.051-19.452z"/><path d="m193.625 419.857v-9.788l-13.055.003c.001-.001.002-.003.003-.002l-80.051 19.453c3.084 6.941 7.18 13.41 11.711 19.304 11.446.178 22.933-1.08 34.009-3.813 18.727-4.622 34.136-14.311 47.383-25.157z"/></g><path d="m443.247 255.478-132.848-5s-17.474-18.074-54.4-18.074-54.4 18.074-54.4 18.074l-132.848 5c-36.433 44.51-28.829 87.549-1.355 112.553 39.119 35.603 92.322 22.357 115.371-6.707s50.731-55.259 73.232-55.259 50.182 26.195 73.231 55.259 80.797 46.738 115.371 6.707c24.206-28.024 34.118-67.913-1.354-112.553z" fill="#febd55"/><path d="m256 350.031c27.44 0 53.795 61.778 109.759 76.224 65.856 17 146.241-20.29 146.241-106.385 0-44.366-27.069-74.158-47.97-91.67-5.164 10.369-12.245 19.616-20.783 27.277 10.339 22.388 25.559 66.529 1.355 94.553-34.574 40.031-92.322 22.357-115.371-6.707-23.049-29.063-50.731-55.258-73.231-55.258s-50.182 26.195-73.232 55.259c-23.049 29.064-80.797 46.738-115.371 6.707-24.204-28.024-8.983-72.165 1.355-94.553-8.538-7.661-15.619-16.908-20.783-27.277-20.9 17.512-47.969 47.304-47.969 91.67 0 86.095 80.385 123.385 146.241 106.385 55.964-14.447 82.319-76.225 109.759-76.225z" fill="#f7594e"/><path d="m256 363.154c-18.257 0-58.934 43.701-62.375 56.703 14.04 8.622 34.157 15.721 62.376 15.721s48.336-7.099 62.375-15.721c-3.574-12.641-44.119-56.703-62.376-56.703z" fill="#525256"/><path d="m256 341.031c-21.12 0-75.431 69.04-75.431 69.04 3.602 3.285 7.927 6.636 13.055 9.785 26.338-21.563 44.118-47.703 62.375-47.703s36.038 26.14 62.375 47.703c5.128-3.149 9.453-6.5 13.055-9.785.002 0-54.309-69.04-75.429-69.04z" fill="#464649"/><path d="m146.241 416.675c55.964-14.446 82.319-76.224 109.759-76.224s53.795 61.778 109.759 76.224c63.302 16.341 145.87-17.309 145.87-105.6-3.272-39.537-28.111-66.546-47.598-82.874l-17.61 10.864-3.173 16.413c10.339 22.387 25.559 66.529 1.355 94.553-34.574 40.031-92.322 22.357-115.372-6.707-23.049-29.064-50.731-55.259-73.231-55.259s-50.182 26.195-73.231 55.259-80.797 46.738-115.372 6.707c-24.204-28.024-8.983-72.166 1.355-94.553l-3.872-17.348-16.91-9.929c-19.487 16.328-44.327 43.337-47.599 82.874 0 84.242 82.567 121.941 145.87 105.6z" fill="#f7594e"/><g><path d="m365.759 407.675c-55.964-14.447-82.319-76.225-109.759-76.225s-53.795 61.778-109.759 76.224c-63.302 16.341-140.015-17.489-145.87-96.6-.237 2.868-.371 5.796-.371 8.797 0 86.095 80.385 123.385 146.241 106.385 55.964-14.446 82.319-76.224 109.759-76.224s53.795 61.778 109.759 76.224c65.856 17 146.241-20.29 146.241-106.385 0-3-.134-5.928-.371-8.796-5.854 79.111-82.568 112.941-145.87 96.6z" fill="#ea4642"/></g><path d="m38.938 178.445c0 50.172 43.524 90.764 90.729 90.764 9.623 0 27.603-13.256 27.603-13.256l-4.224-110.465c0-22.99-19.256-36.881-56.063-42.937-31.484 12.08-54.55 41.102-58.045 75.894z" fill="#edf4fa"/><path d="m157.269 255.953c-8.708 2.761-17.98 4.256-27.603 4.256-47.205 0-86.034-35.834-90.729-81.764-.304 3.03-.477 6.099-.477 9.208 0 50.333 40.834 91.136 91.206 91.136 15.686 0 30.446-3.958 43.337-10.927v-11.862z" fill="#e4eaef"/><path d="m256 182.737c8.194 0 18.689-8.506 18.689-20.586-3.423-6.861-10.495-11.586-18.689-11.586s-15.266 4.725-18.689 11.586c0 10.653 10.495 20.586 18.689 20.586z" fill="#f7594e"/><path d="m129.667 215.455 15.707-12.464 7.955-25.882-9.271-23.966c-4.431-1.847-9.291-2.87-14.391-2.87-17.452 0-32.111 11.941-36.245 28.092 0 23.334 18.793 37.09 36.245 37.09z" fill="#525256"/><path d="m129.667 206.455c-17.452 0-32.111-11.941-36.245-28.092-.76 2.97-1.166 6.083-1.166 9.29 0 20.645 16.749 37.382 37.411 37.382 6.263 0 12.161-1.545 17.348-4.264l8.058-8.747-9.699-9.035c-4.778 2.216-10.094 3.466-15.707 3.466z" fill="#464649"/><path d="m126.148 54.296c-26.332-9.078-52.35-23.791-64.572-47.576-1.975-3.845-7.537-3.625-9.116.4-2.669 6.801-5.679 16.21-6.952 26.415 0 15.73 5.347 28.188 13.474 36.019 30.354 29.248 80.735 35.141 82.862 57.385.41 4.286 1.627 12.518 1.627 12.518.374 1.898.574 3.902.574 6.032 0 82.714 3.842 123.376 37.316 123.376l20.238-18.385v-90.476c.002-47.717-30.31-90.146-75.451-105.708z" fill="#36ce94"/><path d="m256 173.737c-8.193 0-15.266-4.725-18.689-11.586-1.397 2.801-2.203 5.948-2.203 9.29 0 11.53 9.354 20.876 20.892 20.876s20.892-9.346 20.892-20.876c0-3.342-.806-6.49-2.203-9.29-3.423 6.862-10.495 11.586-18.689 11.586z" fill="#ea4642"/><g><path d="m144.046 126.906c1.874-35.595-54.709-37.105-85.063-66.353-8.131-7.834-12.073-17.319-13.476-27.032-1.931 15.461.135 32.758 13.476 45.613 28.542 27.501 78.61 30.438 84.489 60.323.157-4.072.347-8.25.574-12.551z" fill="#34bf86"/></g><path d="m473.062 178.445c0 50.172-43.524 90.764-90.729 90.764-9.623 0-27.603-13.256-27.603-13.256l4.224-110.465c0-22.99 19.256-36.881 56.063-42.937 31.484 12.08 54.549 41.102 58.045 75.894z" fill="#edf4fa"/><path d="m354.731 255.953c8.708 2.761 17.98 4.256 27.603 4.256 47.205 0 86.034-35.834 90.729-81.764.304 3.03.477 6.099.477 9.208 0 50.333-40.835 91.136-91.206 91.136-15.686 0-30.446-3.958-43.337-10.927v-11.862z" fill="#e4eaef"/><path d="m382.333 215.455-15.707-12.464-7.955-25.882 9.271-23.966c4.431-1.847 9.291-2.87 14.391-2.87 17.452 0 32.111 11.941 36.245 28.092 0 23.334-18.793 37.09-36.245 37.09z" fill="#525256"/><path d="m382.333 206.455c17.452 0 32.111-11.941 36.245-28.092.76 2.97 1.166 6.083 1.166 9.29 0 20.645-16.749 37.382-37.411 37.382-6.263 0-12.161-1.545-17.348-4.264l-8.058-8.747 9.699-9.035c4.778 2.216 10.094 3.466 15.707 3.466z" fill="#464649"/><path d="m385.852 54.296c26.332-9.078 52.351-23.791 64.572-47.576 1.975-3.845 7.537-3.625 9.116.4 2.669 6.801 5.678 16.21 6.952 26.415 0 15.73-5.347 28.188-13.474 36.019-30.354 29.248-80.735 35.141-82.862 57.385-.41 4.286-1.627 12.518-1.627 12.518-.374 1.898-.574 3.902-.574 6.032 0 82.714-3.842 123.376-37.316 123.376l-20.238-18.385v-90.476c-.002-47.717 30.31-90.146 75.451-105.708z" fill="#36ce94"/><g><path d="m367.954 126.906c-1.874-35.595 54.709-37.105 85.064-66.353 8.13-7.834 12.073-17.319 13.476-27.032 1.931 15.461-.135 32.758-13.476 45.613-28.542 27.501-78.61 30.438-84.489 60.323-.158-4.072-.348-8.25-.575-12.551z" fill="#34bf86"/></g><path d="m208.071 296.502c12.316 0 26.624-12.381 26.624-27.889-3.843-10.997-14.309-18.889-26.624-18.889-12.316 0-22.782 7.892-26.625 18.889.001 16.514 14.309 27.889 26.625 27.889z" fill="#ffe08c"/><path d="m208.071 287.502c-12.316 0-22.781-7.892-26.625-18.889-1.017 2.91-1.576 6.034-1.576 9.29 0 15.563 12.626 28.179 28.201 28.179s28.201-12.616 28.201-28.179c0-3.256-.559-6.381-1.576-9.29-3.843 10.997-14.309 18.889-26.625 18.889z" fill="#f9d375"/><path d="m303.929 296.502c-12.316 0-26.625-12.381-26.625-27.889 3.843-10.997 14.309-18.889 26.625-18.889s22.782 7.892 26.625 18.889c-.001 16.514-14.309 27.889-26.625 27.889z" fill="#ffe08c"/><path d="m303.929 287.502c12.316 0 22.781-7.892 26.625-18.889 1.017 2.91 1.576 6.034 1.576 9.29 0 15.563-12.626 28.179-28.201 28.179s-28.201-12.616-28.201-28.179c0-3.256.559-6.381 1.576-9.29 3.843 10.997 14.309 18.889 26.625 18.889z" fill="#f9d375"/></g></g></svg>